<svg xmlns="http://www.w3.org/2000/svg" xmlns:xlink="http://www.w3.org/1999/xlink" width="1000" zoomAndPan="magnify" viewBox="0 0 750 749.999995" height="1000" preserveAspectRatio="xMidYMid meet" version="1.0"><defs><clipPath id="fb5fac843a"><path d="M 26 25 L 729.96875 25 L 729.96875 727.320312 L 26 727.320312 Z M 26 25 " clip-rule="nonzero"/></clipPath></defs><path fill="#cb6ce6" d="M 378.140625 38.980469 C 190.796875 38.980469 37.3125 192.117188 40.769531 383.335938 L 107.269531 465.058594 L 87.875 548.625 C 146.683594 647.589844 254.664062 713.914062 378.140625 713.914062 C 501.613281 713.914062 609.59375 647.589844 668.40625 548.625 L 648.777344 456.335938 L 715.507812 383.335938 C 718.964844 192.222656 565.609375 38.980469 378.140625 38.980469 Z M 378.140625 38.980469 " fill-opacity="1" fill-rule="nonzero"/><path fill="#cb6ce6" d="M 653.503906 383.335938 C 655.988281 300.871094 619.878906 217.171875 550.300781 161.378906 L 205.976562 161.378906 C 136.417969 217.15625 100.289062 300.851562 102.777344 383.335938 L 40.769531 383.335938 C 41.984375 443.652344 59.007812 500.070312 87.875 548.625 L 668.40625 548.625 C 697.273438 500.070312 714.296875 443.652344 715.507812 383.335938 C 679.367188 383.335938 689.519531 383.335938 653.503906 383.335938 Z M 653.503906 383.335938 " fill-opacity="1" fill-rule="nonzero"/><path fill="#ffffff" d="M 550.300781 161.378906 L 550.300781 218.046875 C 550.300781 240.867188 531.804688 259.367188 508.984375 259.367188 L 247.296875 259.367188 C 224.476562 259.367188 205.976562 240.867188 205.976562 218.046875 L 205.976562 161.378906 C 306.503906 80.777344 449.789062 80.789062 550.300781 161.378906 Z M 550.300781 161.378906 " fill-opacity="1" fill-rule="nonzero"/><path fill="#ffffff" d="M 433.230469 548.625 C 433.230469 550.429688 433.144531 552.226562 432.964844 554.023438 C 432.789062 555.820312 432.523438 557.601562 432.171875 559.371094 C 431.820312 561.140625 431.382812 562.890625 430.859375 564.617188 C 430.335938 566.34375 429.726562 568.039062 429.039062 569.707031 C 428.347656 571.375 427.578125 573.003906 426.726562 574.59375 C 425.875 576.1875 424.949219 577.734375 423.945312 579.234375 C 422.945312 580.734375 421.871094 582.179688 420.726562 583.578125 C 419.582031 584.972656 418.371094 586.304688 417.09375 587.582031 C 415.820312 588.859375 414.484375 590.070312 413.089844 591.214844 C 411.695312 592.359375 410.246094 593.433594 408.746094 594.433594 C 407.246094 595.4375 405.703125 596.363281 404.109375 597.214844 C 402.519531 598.066406 400.890625 598.835938 399.222656 599.527344 C 397.554688 600.214844 395.859375 600.824219 394.132812 601.347656 C 392.40625 601.871094 390.65625 602.308594 388.886719 602.660156 C 387.117188 603.011719 385.335938 603.277344 383.539062 603.453125 C 381.742188 603.632812 379.945312 603.71875 378.140625 603.71875 C 376.335938 603.71875 374.535156 603.632812 372.738281 603.453125 C 370.945312 603.277344 369.160156 603.011719 367.390625 602.660156 C 365.621094 602.308594 363.875 601.871094 362.148438 601.347656 C 360.421875 600.824219 358.722656 600.214844 357.058594 599.527344 C 355.390625 598.835938 353.761719 598.066406 352.167969 597.214844 C 350.578125 596.363281 349.03125 595.4375 347.53125 594.433594 C 346.03125 593.433594 344.585938 592.359375 343.191406 591.214844 C 341.796875 590.070312 340.460938 588.859375 339.183594 587.582031 C 337.90625 586.304688 336.699219 584.972656 335.554688 583.578125 C 334.410156 582.179688 333.335938 580.734375 332.332031 579.234375 C 331.332031 577.734375 330.402344 576.1875 329.554688 574.59375 C 328.703125 573.003906 327.933594 571.375 327.242188 569.707031 C 326.550781 568.039062 325.945312 566.34375 325.421875 564.617188 C 324.894531 562.890625 324.457031 561.140625 324.105469 559.371094 C 323.753906 557.601562 323.488281 555.820312 323.3125 554.023438 C 323.136719 552.226562 323.046875 550.429688 323.046875 548.625 C 323.046875 546.820312 323.136719 545.019531 323.3125 543.222656 C 323.488281 541.425781 323.753906 539.644531 324.105469 537.875 C 324.457031 536.105469 324.894531 534.355469 325.421875 532.628906 C 325.945312 530.902344 326.550781 529.207031 327.242188 527.539062 C 327.933594 525.871094 328.703125 524.242188 329.554688 522.652344 C 330.402344 521.058594 331.332031 519.515625 332.332031 518.011719 C 333.335938 516.511719 334.410156 515.066406 335.554688 513.671875 C 336.699219 512.277344 337.90625 510.941406 339.183594 509.664062 C 340.460938 508.386719 341.796875 507.179688 343.191406 506.035156 C 344.585938 504.886719 346.03125 503.816406 347.53125 502.8125 C 349.03125 501.808594 350.578125 500.882812 352.167969 500.03125 C 353.761719 499.183594 355.390625 498.410156 357.058594 497.722656 C 358.722656 497.03125 360.421875 496.421875 362.148438 495.898438 C 363.875 495.375 365.621094 494.9375 367.390625 494.585938 C 369.160156 494.234375 370.945312 493.96875 372.738281 493.792969 C 374.535156 493.617188 376.335938 493.527344 378.140625 493.527344 C 379.945312 493.527344 381.742188 493.617188 383.539062 493.792969 C 385.335938 493.96875 387.117188 494.234375 388.886719 494.585938 C 390.65625 494.9375 392.40625 495.375 394.132812 495.898438 C 395.859375 496.421875 397.554688 497.03125 399.222656 497.722656 C 400.890625 498.410156 402.519531 499.183594 404.109375 500.03125 C 405.703125 500.882812 407.246094 501.808594 408.746094 502.8125 C 410.246094 503.816406 411.695312 504.886719 413.089844 506.035156 C 414.484375 507.179688 415.820312 508.386719 417.09375 509.664062 C 418.371094 510.941406 419.582031 512.277344 420.726562 513.671875 C 421.871094 515.066406 422.945312 516.511719 423.945312 518.011719 C 424.949219 519.515625 425.875 521.058594 426.726562 522.652344 C 427.578125 524.242188 428.347656 525.871094 429.039062 527.539062 C 429.726562 529.207031 430.335938 530.902344 430.859375 532.628906 C 431.382812 534.355469 431.820312 536.105469 432.171875 537.875 C 432.523438 539.644531 432.789062 541.425781 432.964844 543.222656 C 433.144531 545.019531 433.230469 546.820312 433.230469 548.625 Z M 433.230469 548.625 " fill-opacity="1" fill-rule="nonzero"/><path fill="#8c52ff" d="M 308.925781 340.824219 C 304.167969 346.761719 305.125 355.429688 311.058594 360.183594 C 316.992188 364.941406 325.660156 363.988281 330.421875 358.054688 C 354.898438 327.511719 401.332031 327.449219 425.859375 358.054688 C 430.617188 363.988281 439.285156 364.945312 445.222656 360.183594 C 451.15625 355.429688 452.113281 346.757812 447.355469 340.824219 C 411.855469 296.535156 344.488281 296.453125 308.925781 340.824219 Z M 308.925781 340.824219 " fill-opacity="1" fill-rule="nonzero"/><path fill="#8c52ff" d="M 336.472656 382.6875 C 331.714844 388.621094 332.667969 397.292969 338.605469 402.050781 C 344.539062 406.808594 353.210938 405.851562 357.964844 399.917969 C 368.316406 387.003906 387.941406 386.976562 398.3125 399.917969 C 403.0625 405.839844 411.726562 406.816406 417.675781 402.050781 C 423.609375 397.292969 424.566406 388.621094 419.808594 382.6875 C 398.441406 356.027344 357.882812 355.972656 336.472656 382.6875 Z M 336.472656 382.6875 " fill-opacity="1" fill-rule="nonzero"/><path fill="#8c52ff" d="M 391.914062 431.542969 C 391.914062 432.449219 391.824219 433.34375 391.648438 434.230469 C 391.472656 435.117188 391.210938 435.980469 390.863281 436.816406 C 390.519531 437.648438 390.09375 438.445312 389.589844 439.195312 C 389.089844 439.949219 388.519531 440.644531 387.878906 441.285156 C 387.238281 441.921875 386.542969 442.492188 385.792969 442.996094 C 385.039062 443.5 384.246094 443.921875 383.410156 444.269531 C 382.574219 444.617188 381.714844 444.875 380.828125 445.054688 C 379.941406 445.230469 379.042969 445.316406 378.140625 445.316406 C 377.234375 445.316406 376.339844 445.230469 375.453125 445.054688 C 374.566406 444.875 373.703125 444.617188 372.867188 444.269531 C 372.035156 443.921875 371.238281 443.5 370.488281 442.996094 C 369.734375 442.492188 369.039062 441.921875 368.402344 441.285156 C 367.761719 440.644531 367.191406 439.949219 366.6875 439.195312 C 366.183594 438.445312 365.761719 437.648438 365.414062 436.816406 C 365.070312 435.980469 364.808594 435.117188 364.632812 434.230469 C 364.453125 433.34375 364.367188 432.449219 364.367188 431.542969 C 364.367188 430.640625 364.453125 429.742188 364.632812 428.855469 C 364.808594 427.96875 365.070312 427.109375 365.414062 426.273438 C 365.761719 425.4375 366.183594 424.644531 366.6875 423.890625 C 367.191406 423.140625 367.761719 422.441406 368.402344 421.804688 C 369.039062 421.164062 369.734375 420.59375 370.488281 420.089844 C 371.238281 419.589844 372.035156 419.164062 372.867188 418.816406 C 373.703125 418.472656 374.566406 418.210938 375.453125 418.035156 C 376.339844 417.859375 377.234375 417.769531 378.140625 417.769531 C 379.042969 417.769531 379.941406 417.859375 380.828125 418.035156 C 381.714844 418.210938 382.574219 418.472656 383.410156 418.816406 C 384.246094 419.164062 385.039062 419.589844 385.792969 420.089844 C 386.542969 420.59375 387.238281 421.164062 387.878906 421.804688 C 388.519531 422.441406 389.089844 423.140625 389.589844 423.890625 C 390.09375 424.644531 390.519531 425.4375 390.863281 426.273438 C 391.210938 427.109375 391.472656 427.96875 391.648438 428.855469 C 391.824219 429.742188 391.914062 430.640625 391.914062 431.542969 Z M 391.914062 431.542969 " fill-opacity="1" fill-rule="nonzero"/><path fill="#8c52ff" d="M 261.070312 204.269531 L 316.160156 204.269531 C 323.769531 204.269531 329.933594 198.105469 329.933594 190.496094 C 329.933594 182.890625 323.769531 176.722656 316.160156 176.722656 L 261.070312 176.722656 C 253.460938 176.722656 247.296875 182.890625 247.296875 190.496094 C 247.296875 198.105469 253.464844 204.269531 261.070312 204.269531 Z M 261.070312 204.269531 " fill-opacity="1" fill-rule="nonzero"/><path fill="#8c52ff" d="M 440.117188 204.269531 L 495.210938 204.269531 C 502.816406 204.269531 508.984375 198.105469 508.984375 190.496094 C 508.984375 182.890625 502.816406 176.722656 495.210938 176.722656 L 440.117188 176.722656 C 432.511719 176.722656 426.34375 182.890625 426.34375 190.496094 C 426.34375 198.105469 432.511719 204.269531 440.117188 204.269531 Z M 440.117188 204.269531 " fill-opacity="1" fill-rule="nonzero"/><path fill="#8c52ff" d="M 390.535156 190.496094 C 390.535156 191.402344 390.445312 192.296875 390.269531 193.183594 C 390.09375 194.070312 389.832031 194.933594 389.488281 195.769531 C 389.140625 196.601562 388.714844 197.398438 388.214844 198.148438 C 387.710938 198.902344 387.140625 199.597656 386.5 200.238281 C 385.863281 200.875 385.167969 201.445312 384.414062 201.949219 C 383.664062 202.453125 382.867188 202.875 382.03125 203.222656 C 381.199219 203.570312 380.335938 203.828125 379.449219 204.007812 C 378.5625 204.183594 377.667969 204.269531 376.761719 204.269531 C 375.859375 204.269531 374.960938 204.183594 374.074219 204.007812 C 373.1875 203.828125 372.328125 203.570312 371.492188 203.222656 C 370.65625 202.875 369.863281 202.453125 369.109375 201.949219 C 368.359375 201.445312 367.664062 200.875 367.023438 200.238281 C 366.382812 199.597656 365.8125 198.902344 365.3125 198.148438 C 364.808594 197.398438 364.382812 196.601562 364.039062 195.769531 C 363.691406 194.933594 363.429688 194.070312 363.253906 193.183594 C 363.078125 192.296875 362.988281 191.402344 362.988281 190.496094 C 362.988281 189.59375 363.078125 188.695312 363.253906 187.808594 C 363.429688 186.921875 363.691406 186.0625 364.039062 185.226562 C 364.382812 184.390625 364.808594 183.597656 365.3125 182.84375 C 365.8125 182.09375 366.382812 181.398438 367.023438 180.757812 C 367.664062 180.117188 368.359375 179.546875 369.109375 179.042969 C 369.863281 178.542969 370.65625 178.117188 371.492188 177.769531 C 372.328125 177.425781 373.1875 177.164062 374.074219 176.988281 C 374.960938 176.8125 375.859375 176.722656 376.761719 176.722656 C 377.667969 176.722656 378.5625 176.8125 379.449219 176.988281 C 380.335938 177.164062 381.199219 177.425781 382.03125 177.769531 C 382.867188 178.117188 383.664062 178.542969 384.414062 179.042969 C 385.167969 179.546875 385.863281 180.117188 386.5 180.757812 C 387.140625 181.398438 387.710938 182.09375 388.214844 182.84375 C 388.714844 183.597656 389.140625 184.390625 389.488281 185.226562 C 389.832031 186.0625 390.09375 186.921875 390.269531 187.808594 C 390.445312 188.695312 390.535156 189.59375 390.535156 190.496094 Z M 390.535156 190.496094 " fill-opacity="1" fill-rule="nonzero"/><g clip-path="url(#fb5fac843a)"><path fill="#8c52ff" d="M 688.03125 210.808594 L 688.03125 38.980469 C 688.03125 31.375 681.863281 25.207031 674.257812 25.207031 C 666.652344 25.207031 660.484375 31.375 660.484375 38.980469 L 660.484375 167.4375 C 519.398438 -22.347656 236.695312 -22.097656 95.792969 167.4375 L 95.792969 38.980469 C 95.792969 31.375 89.625 25.207031 82.019531 25.207031 C 74.414062 25.207031 68.246094 31.375 68.246094 38.980469 L 68.246094 210.808594 C 40.867188 261.886719 25.945312 320.398438 27.003906 382.550781 C 18.339844 538.691406 164.015625 727.6875 378.140625 727.6875 C 569.753906 727.6875 724.941406 574.71875 729.25 384.621094 C 729.800781 378.644531 714.230469 259.675781 688.03125 210.808594 Z M 378.140625 700.136719 C 268.816406 700.136719 171.988281 645.644531 113.363281 562.398438 L 310.660156 562.398438 C 317.058594 593.796875 344.882812 617.492188 378.140625 617.492188 C 411.394531 617.492188 439.21875 593.796875 445.617188 562.398438 L 642.917969 562.398438 C 584.289062 645.644531 487.460938 700.136719 378.140625 700.136719 Z M 336.820312 548.625 C 336.820312 525.839844 355.355469 507.300781 378.140625 507.300781 C 400.921875 507.300781 419.457031 525.839844 419.457031 548.625 C 419.457031 571.410156 400.921875 589.945312 378.140625 589.945312 C 355.355469 589.945312 336.820312 571.410156 336.820312 548.625 Z M 660.3125 534.847656 L 445.617188 534.847656 C 439.21875 503.453125 411.398438 479.753906 378.140625 479.753906 C 344.882812 479.753906 317.058594 503.453125 310.660156 534.847656 L 95.96875 534.847656 C 72.753906 493.652344 58.304688 446.890625 55.152344 397.109375 L 102.777344 397.109375 C 110.550781 397.109375 116.78125 390.671875 116.542969 382.914062 C 114.328125 310.074219 143.40625 241.921875 192.203125 192.539062 L 192.203125 218.042969 C 192.203125 248.421875 216.917969 273.140625 247.296875 273.140625 L 508.984375 273.140625 C 539.359375 273.140625 564.074219 248.421875 564.074219 218.042969 L 564.074219 192.539062 C 612.871094 241.917969 641.949219 310.070312 639.738281 382.910156 C 639.5 390.679688 645.738281 397.105469 653.503906 397.105469 L 701.128906 397.105469 C 697.972656 446.890625 683.527344 493.652344 660.3125 534.847656 Z M 219.75 218.046875 L 219.75 168.28125 C 313.066406 96.972656 442.867188 96.707031 536.527344 168.28125 L 536.527344 218.046875 C 536.527344 233.234375 524.171875 245.59375 508.984375 245.59375 L 247.296875 245.59375 C 232.109375 245.59375 219.75 233.234375 219.75 218.046875 Z M 667.289062 369.558594 C 663.613281 212.691406 534.78125 87.191406 378.140625 87.191406 C 221.824219 87.191406 92.671875 212.335938 88.988281 369.558594 L 54.5625 369.558594 C 58.242188 194.246094 201.972656 52.753906 378.140625 52.753906 C 554.308594 52.753906 698.039062 194.246094 701.71875 369.558594 Z M 667.289062 369.558594 " fill-opacity="1" fill-rule="nonzero"/></g></svg>